<svg xmlns="http://www.w3.org/2000/svg" version="1.1" xmlns:xlink="http://www.w3.org/1999/xlink" width="512" height="512" x="0" y="0" viewBox="0 0 512.002 512.002" xml:space="preserve" class="hovered-paths">
    <g>
        <path d="M286.783 210.69 256.001 145l-30.783 65.69-49.217-43.984L191.058 270h129.885L336 166.705l-49.217 43.985z" style="fill-rule:evenodd;clip-rule:evenodd;" fill="#ffc144" class="hovered-path"></path>
        <path d="m256.001 145 30.783 65.69 49.217-43.984L320.943 270H191.058l-15.057-103.295 49.217 43.984L256.001 145zm0-75c-77.32 0-140 62.68-140 140s62.68 140 140 140 140-62.68 140-140-62.68-140-140-140z" style="fill-rule:evenodd;clip-rule:evenodd;" fill="#ffda8f"></path>
        <path d="M396.001 210c0 77.32-62.68 140-140 140s-140-62.68-140-140 62.68-140 140-140 140 62.68 140 140zm-140-191.646c-34.262 0-52.527-15.775-81.027-3.971-28.499 11.805-30.26 35.876-54.487 60.102-24.226 24.227-48.297 25.988-60.102 54.487-11.805 28.5 3.971 46.766 3.97 81.027 0 34.262-15.775 52.527-3.971 81.027 11.805 28.5 35.876 30.26 60.102 54.487 24.227 24.226 25.988 48.297 54.487 60.102 28.499 11.805 46.766-3.971 81.027-3.97 34.262 0 52.527 15.775 81.027 3.971 28.5-11.805 30.26-35.876 54.487-60.102 24.226-24.227 48.297-25.988 60.102-54.487 11.805-28.5-3.971-46.766-3.97-81.027 0-34.262 15.775-52.527 3.971-81.027-11.805-28.5-35.876-30.26-60.102-54.487-24.227-24.226-25.987-48.297-54.487-60.102-28.499-11.805-46.766 3.971-81.027 3.97z" style="fill-rule:evenodd;clip-rule:evenodd;" fill="#ffc144" class="hovered-path"></path>
        <path d="M337.027 405.616c-28.499 11.805-46.765-3.971-81.027-3.971s-52.528 15.776-81.027 3.97v96.386L256 473.891l81.027 28.11v-96.385z" style="fill-rule:evenodd;clip-rule:evenodd;" fill="#b278d3"></path>
        <path d="M193.514 84.696C212.325 75.297 233.542 70 256.001 70c77.32 0 140 62.68 140 140s-62.68 140-140 140-140-62.68-140-140c0-22.456 5.295-43.673 14.693-62.481" style="fill-rule:evenodd;clip-rule:evenodd;stroke-width:20.0001;stroke-linecap:round;stroke-linejoin:round;stroke-miterlimit:22.9256;" fill-rule="evenodd" clip-rule="evenodd" fill="none" stroke="#9e00ff" stroke-width="20.0001" stroke-linecap="round" stroke-linejoin="round" stroke-miterlimit="22.9256" opacity="1"></path>
        <path d="M60.385 128.973c11.805-28.499 35.876-30.26 60.102-54.487 24.227-24.227 25.988-48.298 54.487-60.102 28.499-11.805 46.765 3.971 81.027 3.971s52.528-15.776 81.027-3.971c28.499 11.805 30.26 35.876 54.487 60.102 24.227 24.227 48.298 25.988 60.102 54.487 11.805 28.499-3.971 46.765-3.971 81.027s15.776 52.528 3.97 81.027c-11.805 28.499-35.876 30.26-60.102 54.487-24.227 24.227-25.988 48.298-54.487 60.102-28.499 11.805-46.765-3.971-81.027-3.971s-52.528 15.776-81.027 3.97c-28.499-11.805-30.26-35.876-54.487-60.102-24.227-24.227-48.298-25.988-60.102-54.487-11.804-28.499 3.971-46.764 3.971-81.026 0-34.262-15.775-52.528-3.97-81.027z" style="fill-rule:evenodd;clip-rule:evenodd;stroke-width:20.0001;stroke-linecap:round;stroke-linejoin:round;stroke-miterlimit:22.9256;" fill-rule="evenodd" clip-rule="evenodd" fill="none" stroke="#9e00ff" stroke-width="20.0001" stroke-linecap="round" stroke-linejoin="round" stroke-miterlimit="22.9256" opacity="1"></path>
        <path d="M337.027 406.616v95.386l-81.026-28.11-81.027 28.11v-95.386M256.001 145l30.783 65.69 49.217-43.984L320.943 270H191.058l-15.057-103.295 49.217 43.984L256.001 145z" style="fill-rule:evenodd;clip-rule:evenodd;stroke-width:20.0001;stroke-linecap:round;stroke-linejoin:round;stroke-miterlimit:22.9256;" fill-rule="evenodd" clip-rule="evenodd" fill="none" stroke="#9e00ff" stroke-width="20.0001" stroke-linecap="round" stroke-linejoin="round" stroke-miterlimit="22.9256" opacity="1"></path>
        <path d="m157.001 111.01.005-.005" style="fill-rule:evenodd;clip-rule:evenodd;stroke-width:19.9998;stroke-linecap:round;stroke-linejoin:round;stroke-miterlimit:2.6131;" fill-rule="evenodd" clip-rule="evenodd" fill="none" stroke="#9e00ff" stroke-width="19.9998" stroke-linecap="round" stroke-linejoin="round" stroke-miterlimit="2.6131" opacity="1"></path>
    </g>
</svg>